<svg width="25" height="24" viewBox="0 0 25 24" fill="none" xmlns="http://www.w3.org/2000/svg">
<path d="M22.7028 7.22008L14.7635 0.915623C14.0357 0.325982 13.0935 0 12.1171 0C11.1406 0 10.1984 0.325982 9.47065 0.915623L1.53135 7.22008C1.11105 7.56056 0.775661 7.97824 0.547501 8.44531C0.319341 8.91237 0.203651 9.41811 0.208133 9.92884V20.4043C0.208133 21.3579 0.626363 22.2725 1.37082 22.9468C2.11527 23.6212 3.12497 24 4.17778 24H20.0564C21.1092 24 22.1189 23.6212 22.8634 22.9468C23.6078 22.2725 24.026 21.3579 24.026 20.4043V9.91685C24.0286 9.40814 23.912 8.90471 23.6839 8.43984C23.4558 7.97496 23.1214 7.55922 22.7028 7.22008ZM14.7635 21.6029H9.47065V15.61C9.47065 15.2922 9.61006 14.9873 9.85821 14.7625C10.1064 14.5378 10.4429 14.4115 10.7939 14.4115H13.4403C13.7912 14.4115 14.1278 14.5378 14.376 14.7625C14.6241 14.9873 14.7635 15.2922 14.7635 15.61V21.6029ZM21.3796 20.4043C21.3796 20.7222 21.2402 21.027 20.992 21.2518C20.7439 21.4766 20.4073 21.6029 20.0564 21.6029H17.41V15.61C17.41 14.6564 16.9917 13.7418 16.2473 13.0675C15.5028 12.3932 14.4931 12.0143 13.4403 12.0143H10.7939C9.74105 12.0143 8.73135 12.3932 7.9869 13.0675C7.24245 13.7418 6.82422 14.6564 6.82422 15.61V21.6029H4.17778C3.82684 21.6029 3.49028 21.4766 3.24213 21.2518C2.99398 21.027 2.85457 20.7222 2.85457 20.4043V9.91685C2.8548 9.74667 2.89505 9.57849 2.97262 9.4235C3.05019 9.2685 3.16331 9.13025 3.30446 9.01793L11.2438 2.72546C11.4852 2.5333 11.7957 2.42733 12.1171 2.42733C12.4385 2.42733 12.7489 2.5333 12.9904 2.72546L20.9297 9.01793C21.0709 9.13025 21.184 9.2685 21.2615 9.4235C21.3391 9.57849 21.3794 9.74667 21.3796 9.91685V20.4043Z" fill="currentColor"/>
</svg>
