<svg width="25" height="25" viewBox="10 20 27 11" fill="none" xmlns="http://www.w3.org/2000/svg">
<path fill-rule="evenodd" clip-rule="evenodd" d="M31.28 36.6667C32.256 36.6667 33.192 36.3155 33.8821 35.6904C34.5723 35.0653 34.96 34.2174 34.96 33.3334C34.96 32.4493 34.5723 31.6015 33.8821 30.9763C33.192 30.3512 32.256 30 31.28 30C30.304 30 29.368 30.3512 28.6778 30.9763C27.9877 31.6015 27.6 32.4493 27.6 33.3334C27.6 34.2174 27.9877 35.0653 28.6778 35.6904C29.368 36.3155 30.304 36.6667 31.28 36.6667ZM31.28 38C32.6464 38 33.9568 37.5084 34.923 36.6332C35.8892 35.758 36.432 34.571 36.432 33.3334C36.432 32.0957 35.8892 30.9087 34.923 30.0335C33.9568 29.1584 32.6464 28.6667 31.28 28.6667C29.9136 28.6667 28.6032 29.1584 27.637 30.0335C26.6708 30.9087 26.128 32.0957 26.128 33.3334C26.128 34.571 26.6708 35.758 27.637 36.6332C28.6032 37.5084 29.9136 38 31.28 38V38Z" fill="currentColor"/>
<path fill-rule="evenodd" clip-rule="evenodd" d="M31.28 31C31.4752 31 31.6624 31.0702 31.8004 31.1953C31.9385 31.3203 32.016 31.4899 32.016 31.6667V33.0573L32.5364 33.5287C32.6704 33.6544 32.7446 33.8228 32.7429 33.9976C32.7413 34.1724 32.6639 34.3396 32.5274 34.4632C32.3909 34.5868 32.2063 34.6569 32.0134 34.6584C31.8204 34.66 31.6345 34.5928 31.4957 34.4713L30.544 33.6093V31.6667C30.544 31.4899 30.6215 31.3203 30.7596 31.1953C30.8976 31.0702 31.0848 31 31.28 31ZM15.824 25.3333H14.352V26.6667H15.824V25.3333ZM14.352 24C13.9616 24 13.5872 24.1405 13.3111 24.3905C13.0351 24.6406 12.88 24.9797 12.88 25.3333V26.6667C12.88 27.0203 13.0351 27.3594 13.3111 27.6095C13.5872 27.8595 13.9616 28 14.352 28H15.824C16.2144 28 16.5888 27.8595 16.8649 27.6095C17.1409 27.3594 17.296 27.0203 17.296 26.6667V25.3333C17.296 24.9797 17.1409 24.6406 16.8649 24.3905C16.5888 24.1405 16.2144 24 15.824 24H14.352ZM21.712 25.3333H20.24V26.6667H21.712V25.3333ZM20.24 24C19.8496 24 19.4752 24.1405 19.1991 24.3905C18.9231 24.6406 18.768 24.9797 18.768 25.3333V26.6667C18.768 27.0203 18.9231 27.3594 19.1991 27.6095C19.4752 27.8595 19.8496 28 20.24 28H21.712C22.1024 28 22.4768 27.8595 22.7529 27.6095C23.0289 27.3594 23.184 27.0203 23.184 26.6667V25.3333C23.184 24.9797 23.0289 24.6406 22.7529 24.3905C22.4768 24.1405 22.1024 24 21.712 24H20.24ZM27.6 25.3333H26.128V26.6667H27.6V25.3333ZM26.128 24C25.7376 24 25.3632 24.1405 25.0871 24.3905C24.8111 24.6406 24.656 24.9797 24.656 25.3333V26.6667C24.656 27.0203 24.8111 27.3594 25.0871 27.6095C25.3632 27.8595 25.7376 28 26.128 28H27.6C27.9904 28 28.3648 27.8595 28.6409 27.6095C28.9169 27.3594 29.072 27.0203 29.072 26.6667V25.3333C29.072 24.9797 28.9169 24.6406 28.6409 24.3905C28.3648 24.1405 27.9904 24 27.6 24H26.128ZM15.824 30.6667H14.352V32H15.824V30.6667ZM14.352 29.3333C13.9616 29.3333 13.5872 29.4738 13.3111 29.7239C13.0351 29.9739 12.88 30.313 12.88 30.6667V32C12.88 32.3536 13.0351 32.6928 13.3111 32.9428C13.5872 33.1929 13.9616 33.3333 14.352 33.3333H15.824C16.2144 33.3333 16.5888 33.1929 16.8649 32.9428C17.1409 32.6928 17.296 32.3536 17.296 32V30.6667C17.296 30.313 17.1409 29.9739 16.8649 29.7239C16.5888 29.4738 16.2144 29.3333 15.824 29.3333H14.352ZM21.712 30.6667H20.24V32H21.712V30.6667ZM20.24 29.3333C19.8496 29.3333 19.4752 29.4738 19.1991 29.7239C18.9231 29.9739 18.768 30.313 18.768 30.6667V32C18.768 32.3536 18.9231 32.6928 19.1991 32.9428C19.4752 33.1929 19.8496 33.3333 20.24 33.3333H21.712C22.1024 33.3333 22.4768 33.1929 22.7529 32.9428C23.0289 32.6928 23.184 32.3536 23.184 32V30.6667C23.184 30.313 23.0289 29.9739 22.7529 29.7239C22.4768 29.4738 22.1024 29.3333 21.712 29.3333H20.24Z" fill="currentColor"/>
<path fill-rule="evenodd" clip-rule="evenodd" d="M11.408 18C11.408 17.8232 11.4855 17.6536 11.6235 17.5286C11.7616 17.4036 11.9488 17.3333 12.144 17.3333H15.824V16H12.144C11.5584 16 10.9968 16.2107 10.5827 16.5858C10.1686 16.9609 9.93597 17.4696 9.93597 18V34C9.93597 34.5304 10.1686 35.0391 10.5827 35.4142C10.9968 35.7893 11.5584 36 12.144 36H27.0517C26.7378 35.5928 26.498 35.1426 26.3414 34.6667H12.144C11.9488 34.6667 11.7616 34.5964 11.6235 34.4714C11.4855 34.3464 11.408 34.1768 11.408 34V18ZM30.544 28.7133C31.0322 28.6501 31.5278 28.6501 32.016 28.7133V18C32.016 17.4696 31.7833 16.9609 31.3693 16.5858C30.9552 16.2107 30.3936 16 29.808 16H27.6V17.3333H29.808C30.0032 17.3333 30.1904 17.4036 30.3284 17.5286C30.4664 17.6536 30.544 17.8232 30.544 18V28.7133ZM17.296 17.3333H25.0703V16H17.296V17.3333Z" fill="currentColor"/>
<path fill-rule="evenodd" clip-rule="evenodd" d="M26.128 16H17.296V18C17.296 18.1768 17.2185 18.3464 17.0804 18.4714C16.9424 18.5964 16.7552 18.6667 16.56 18.6667C16.3648 18.6667 16.1776 18.5964 16.0396 18.4714C15.9015 18.3464 15.824 18.1768 15.824 18V16H12.144C11.7536 16 11.3792 16.1405 11.1031 16.3905C10.8271 16.6406 10.672 16.9797 10.672 17.3333V20.6667C10.672 21.0203 10.8271 21.3594 11.1031 21.6095C11.3792 21.8595 11.7536 22 12.144 22H29.808C30.1984 22 30.5728 21.8595 30.8489 21.6095C31.1249 21.3594 31.28 21.0203 31.28 20.6667V17.3333C31.28 16.9797 31.1249 16.6406 30.8489 16.3905C30.5728 16.1405 30.1984 16 29.808 16H27.6V18C27.6 18.1768 27.5225 18.3464 27.3844 18.4714C27.2464 18.5964 27.0592 18.6667 26.864 18.6667C26.6688 18.6667 26.4816 18.5964 26.3436 18.4714C26.2055 18.3464 26.128 18.1768 26.128 18V16Z" fill="currentColor"/>
<path fill-rule="evenodd" clip-rule="evenodd" d="M32.016 22H11.408V20.6667H32.016V22Z" fill="currentColor"/>
<path d="M14.352 14.6667C14.352 14.4899 14.4295 14.3203 14.5676 14.1953C14.7056 14.0702 14.8928 14 15.088 14C15.2832 14 15.4704 14.0702 15.6084 14.1953C15.7464 14.3203 15.824 14.4899 15.824 14.6667V17.3333C15.824 17.5101 15.7464 17.6797 15.6084 17.8047C15.4704 17.9298 15.2832 18 15.088 18C14.8928 18 14.7056 17.9298 14.5676 17.8047C14.4295 17.6797 14.352 17.5101 14.352 17.3333V14.6667ZM24.656 14.6667C24.656 14.4899 24.7335 14.3203 24.8716 14.1953C25.0096 14.0702 25.1968 14 25.392 14C25.5872 14 25.7744 14.0702 25.9124 14.1953C26.0504 14.3203 26.128 14.4899 26.128 14.6667V17.3333C26.128 17.5101 26.0504 17.6797 25.9124 17.8047C25.7744 17.9298 25.5872 18 25.392 18C25.1968 18 25.0096 17.9298 24.8716 17.8047C24.7335 17.6797 24.656 17.5101 24.656 17.3333V14.6667Z" fill="currentColor"/>
</svg>
