<svg width="25" height="24" viewBox="0 0 25 24" fill="none" xmlns="http://www.w3.org/2000/svg">
<path d="M3.88512 0C3.05839 0 2.26553 0.297478 1.68094 0.826993C1.09636 1.35651 0.767944 2.07468 0.767944 2.82353V19.7647C0.767944 20.5136 1.09636 21.2317 1.68094 21.7612C2.26553 22.2908 3.05839 22.5882 3.88512 22.5882H10.52C10.1231 22.1528 9.77971 21.6794 9.49604 21.1765H3.88512C3.47176 21.1765 3.07532 21.0277 2.78303 20.763C2.49074 20.4982 2.32653 20.1391 2.32653 19.7647V2.82353C2.32653 2.44911 2.49074 2.09002 2.78303 1.82526C3.07532 1.5605 3.47176 1.41176 3.88512 1.41176H10.1195V6.35294C10.1195 6.91458 10.3658 7.45321 10.8042 7.85034C11.2427 8.24748 11.8373 8.47059 12.4574 8.47059H17.9124V9.91341C18.4397 9.95668 18.9615 10.0441 19.471 10.1746V7.64329C19.4705 7.08185 19.2238 6.54358 18.7852 6.14682L12.6849 0.619765C12.2466 0.223033 11.6524 0.000119832 11.0328 0H3.88512ZM17.5898 7.05882H12.4574C12.2507 7.05882 12.0525 6.98445 11.9063 6.85208C11.7602 6.7197 11.6781 6.54015 11.6781 6.35294V1.704L17.5898 7.05882ZM8.56088 17.6471C8.56088 17.4099 8.57335 17.1741 8.59517 16.9412H7.78159C7.57491 16.9412 7.37669 17.0155 7.23055 17.1479C7.0844 17.2803 7.0023 17.4598 7.0023 17.6471C7.0023 17.8343 7.0844 18.0138 7.23055 18.1462C7.37669 18.2786 7.57491 18.3529 7.78159 18.3529H8.59517C8.57208 18.1182 8.56063 17.8827 8.56088 17.6471ZM8.88351 15.5294C9.03781 15.0367 9.24199 14.5652 9.49604 14.1176H7.78159C7.57491 14.1176 7.37669 14.192 7.23055 14.3244C7.0844 14.4568 7.0023 14.6363 7.0023 14.8235C7.0023 15.0107 7.0844 15.1903 7.23055 15.3227C7.37669 15.455 7.57491 15.5294 7.78159 15.5294H8.88351ZM10.52 12.7059C11.0079 12.1694 11.5752 11.6951 12.2033 11.2941H7.78159C7.57491 11.2941 7.37669 11.3685 7.23055 11.5009C7.0844 11.6332 7.0023 11.8128 7.0023 12C7.0023 12.1872 7.0844 12.3668 7.23055 12.4991C7.37669 12.6315 7.57491 12.7059 7.78159 12.7059H10.52ZM4.66441 11.2941C4.45773 11.2941 4.25952 11.3685 4.11337 11.5009C3.96722 11.6332 3.88512 11.8128 3.88512 12C3.88512 12.1872 3.96722 12.3668 4.11337 12.4991C4.25952 12.6315 4.45773 12.7059 4.66441 12.7059C4.8711 12.7059 5.06931 12.6315 5.21546 12.4991C5.3616 12.3668 5.44371 12.1872 5.44371 12C5.44371 11.8128 5.3616 11.6332 5.21546 11.5009C5.06931 11.3685 4.8711 11.2941 4.66441 11.2941ZM3.88512 14.8235C3.88512 14.6363 3.96722 14.4568 4.11337 14.3244C4.25952 14.192 4.45773 14.1176 4.66441 14.1176C4.8711 14.1176 5.06931 14.192 5.21546 14.3244C5.3616 14.4568 5.44371 14.6363 5.44371 14.8235C5.44371 15.0107 5.3616 15.1903 5.21546 15.3227C5.06931 15.455 4.8711 15.5294 4.66441 15.5294C4.45773 15.5294 4.25952 15.455 4.11337 15.3227C3.96722 15.1903 3.88512 15.0107 3.88512 14.8235ZM3.88512 17.6471C3.88512 17.4598 3.96722 17.2803 4.11337 17.1479C4.25952 17.0155 4.45773 16.9412 4.66441 16.9412C4.8711 16.9412 5.06931 17.0155 5.21546 17.1479C5.3616 17.2803 5.44371 17.4598 5.44371 17.6471C5.44371 17.8343 5.3616 18.0138 5.21546 18.1462C5.06931 18.2786 4.8711 18.3529 4.66441 18.3529C4.45773 18.3529 4.25952 18.2786 4.11337 18.1462C3.96722 18.0138 3.88512 17.8343 3.88512 17.6471ZM24.1468 17.6471C24.1468 19.332 23.4078 20.9479 22.0925 22.1393C20.7772 23.3307 18.9933 24 17.1331 24C15.273 24 13.489 23.3307 12.1737 22.1393C10.8584 20.9479 10.1195 19.332 10.1195 17.6471C10.1195 15.9622 10.8584 14.3463 12.1737 13.1549C13.489 11.9634 15.273 11.2941 17.1331 11.2941C18.9933 11.2941 20.7772 11.9634 22.0925 13.1549C23.4078 14.3463 24.1468 15.9622 24.1468 17.6471ZM17.9124 13.4118C17.9124 13.2246 17.8303 13.045 17.6842 12.9126C17.538 12.7803 17.3398 12.7059 17.1331 12.7059C16.9264 12.7059 16.7282 12.7803 16.5821 12.9126C16.4359 13.045 16.3538 13.2246 16.3538 13.4118V17.6471C16.3538 17.8343 16.4359 18.0138 16.5821 18.1462C16.7282 18.2786 16.9264 18.3529 17.1331 18.3529H20.2503C20.457 18.3529 20.6552 18.2786 20.8013 18.1462C20.9475 18.0138 21.0296 17.8343 21.0296 17.6471C21.0296 17.4598 20.9475 17.2803 20.8013 17.1479C20.6552 17.0155 20.457 16.9412 20.2503 16.9412H17.9124V13.4118Z" fill="currentColor"/>
</svg>
