<svg width="78" height="77" viewBox="0 0 78 77" fill="none" xmlns="http://www.w3.org/2000/svg">
<path fill-rule="evenodd" clip-rule="evenodd" d="M39 67.375C55.1541 67.375 68.25 54.447 68.25 38.5C68.25 22.553 55.1541 9.625 39 9.625C22.8459 9.625 9.75 22.553 9.75 38.5C9.75 54.447 22.8459 67.375 39 67.375ZM39 70.5833C56.9497 70.5833 71.5 56.2196 71.5 38.5C71.5 20.7804 56.9497 6.41666 39 6.41666C21.0503 6.41666 6.5 20.7804 6.5 38.5C6.5 56.2196 21.0503 70.5833 39 70.5833Z" fill="black"/>
<path d="M19.5 57.1565C19.5 55.4994 20.7545 54.0989 22.425 53.916C34.9619 52.5461 43.095 52.6696 55.6042 53.9465C56.2289 54.0113 56.821 54.2542 57.3081 54.6457C57.7952 55.0371 58.1563 55.5601 58.3472 56.1508C58.5382 56.7415 58.5507 57.3744 58.3834 57.972C58.216 58.5696 57.8759 59.1062 57.4048 59.5162C42.6416 72.2196 34.2046 72.0447 20.54 59.529C19.8738 58.9194 19.5 58.0532 19.5 57.1581V57.1565Z" fill="black"/>
<path fill-rule="evenodd" clip-rule="evenodd" d="M55.4369 55.5411C43.0268 54.2738 35.0106 54.1551 22.6021 55.5106C22.1937 55.5576 21.8171 55.7516 21.5446 56.0556C21.272 56.3596 21.1226 56.7521 21.125 57.1581C21.125 57.6169 21.3184 58.0516 21.645 58.3532C28.418 64.5549 33.5498 67.3574 38.5661 67.375C43.6004 67.3926 49.0084 64.6126 56.3371 58.3082C56.57 58.1037 56.7376 57.8367 56.8196 57.5399C56.9016 57.243 56.8945 56.929 56.7992 56.6361C56.7038 56.3432 56.5243 56.0839 56.2824 55.8898C56.0406 55.6956 55.7468 55.5751 55.4369 55.5427V55.5411ZM22.2463 52.3215C34.9148 50.9371 43.1665 51.0622 55.7733 52.3504C56.713 52.4472 57.6037 52.8124 58.3365 53.4013C59.0692 53.9902 59.6121 54.7772 59.8987 55.666C60.1853 56.5548 60.2032 57.5068 59.9501 58.4054C59.6971 59.3041 59.1841 60.1104 58.474 60.7257C51.0396 67.1231 44.8484 70.6074 38.5564 70.5833C32.2465 70.5609 26.3283 67.0173 19.4366 60.7049C18.9432 60.2512 18.5499 59.7019 18.2812 59.0913C18.0125 58.4808 17.8742 57.8221 17.875 57.1565C17.8726 55.9604 18.3173 54.8056 19.1239 53.9132C19.9305 53.0207 21.0423 52.4534 22.2463 52.3199V52.3215Z" fill="black"/>
<path d="M52 32.0833C52 35.4869 50.6304 38.7512 48.1924 41.1579C45.7544 43.5646 42.4478 44.9167 39 44.9167C35.5522 44.9167 32.2456 43.5646 29.8076 41.1579C27.3696 38.7512 26 35.4869 26 32.0833C26 28.6797 27.3696 25.4155 29.8076 23.0088C32.2456 20.6021 35.5522 19.25 39 19.25C42.4478 19.25 45.7544 20.6021 48.1924 23.0088C50.6304 25.4155 52 28.6797 52 32.0833V32.0833Z" fill="black"/>
<path fill-rule="evenodd" clip-rule="evenodd" d="M39 41.7083C41.5859 41.7083 44.0658 40.6943 45.8943 38.8892C47.7228 37.0842 48.75 34.636 48.75 32.0833C48.75 29.5306 47.7228 27.0825 45.8943 25.2774C44.0658 23.4724 41.5859 22.4583 39 22.4583C36.4141 22.4583 33.9342 23.4724 32.1057 25.2774C30.2772 27.0825 29.25 29.5306 29.25 32.0833C29.25 34.636 30.2772 37.0842 32.1057 38.8892C33.9342 40.6943 36.4141 41.7083 39 41.7083V41.7083ZM39 44.9167C42.4478 44.9167 45.7544 43.5646 48.1924 41.1579C50.6304 38.7512 52 35.4869 52 32.0833C52 28.6797 50.6304 25.4155 48.1924 23.0088C45.7544 20.6021 42.4478 19.25 39 19.25C35.5522 19.25 32.2456 20.6021 29.8076 23.0088C27.3696 25.4155 26 28.6797 26 32.0833C26 35.4869 27.3696 38.7512 29.8076 41.1579C32.2456 43.5646 35.5522 44.9167 39 44.9167V44.9167Z" fill="black"/>
</svg>
